<?xml version="1.0" encoding="utf-8"?>
<!-- Generator: Adobe Illustrator 25.2.0, SVG Export Plug-In . SVG Version: 6.00 Build 0)  -->
<svg version="1.1" id="Layer_1" xmlns="http://www.w3.org/2000/svg" xmlns:xlink="http://www.w3.org/1999/xlink" x="0px" y="0px"
	 viewBox="0 0 512 512" style="enable-background:new 0 0 512 512;" xml:space="preserve">
<style type="text/css">
	.st0{fill:#DADADA;}
</style>
<g transform="translate(0.000000,512.000000) scale(0.100000,-0.100000)">
	<path class="st0" d="M2799,4816c-81-29-140-80-179-155c-15-30-67-213-140-490l-12-44l-166,166c-113,112-182,172-212,186
		c-91,42-205,19-281-55l-36-35l-79,23c-104,30-315,32-414,5c-434-120-686-557-569-988l21-79l-37-41c-48-54-75-113-75-169
		c0-98,10-113,198-302c97-98,173-180,170-183s-115-35-249-71c-254-68-321-96-370-151c-74-85-100-215-64-324c24-72,119-168,189-192
		c93-32,138-25,589,93c232,61,488,127,569,148l148,37l927-927c760-759,937-931,976-948c188-83,393-7,480,178c39,85,42,184,7,277
		c-21,57-48,85-461,500l-439,441l58,57l57,57l430-430c458-459,473-471,586-489c69-11,157,2,219,34c64,32,144,122,169,190
		c28,76,28,184,0,262c-20,55-56,93-685,723c-365,366-664,669-664,673s13,7,28,7c50,0,184,39,261,75c98,47,182,108,262,191
		c207,216,292,423,329,794c44,454,79,554,285,808c41,51,44,84,10,117c-54,55-108,25-215-117c-143-189-196-357-235-748
		c-26-257-55-381-120-510c-87-173-268-348-427-411c-69-28-185-48-273-49h-70l-183,183c-100,100-182,189-182,197c0,9,65,266,145,573
		c155,594,160,628,128,723c-23,67-120,164-187,187C2958,4833,2850,4834,2799,4816z M2980,4655c46-24,80-82,80-135
		c0-37-34-187-44-198c-4-3-297,75-303,82c-9,9,46,188,64,208C2827,4669,2917,4687,2980,4655z M2222,4143l198-198l-26-95
		c-22-82-32-101-69-139l-42-43l-12,81c-33,224-144,408-330,547c-24,18,4,44,47,44C2021,4340,2039,4325,2222,4143z M1634,4260
		c180-46,336-170,415-330c68-139,85-264,56-415c-58-307-352-534-662-511c-293,21-522,217-587,503C753,3962,1181,4376,1634,4260z
		 M2831,4203c105-27,139-40,139-52c0-9-47-198-105-420c-58-223-105-418-105-435c0-25,24-53,150-181c83-83,150-154,150-158
		s-21-7-47-7c-27-1-68-5-93-10l-45-8l-141,139c-132,130-144,139-180,139c-37,0-50-11-341-303c-279-279-303-305-303-337
		c0-31,21-55,243-278c133-134,252-248,265-253c16-6,33-4,55,5c44,19,604,584,612,618c7,29-6,60-42,99l-24,26l59,6c33,4,82,4,109,0
		l51-5l563-564l564-564l-142-142l-143-142l-323,322c-297,295-327,322-358,322c-29,0-48-15-166-133s-133-137-133-166
		c0-31,27-61,322-358l322-323l-142-143l-142-142l-803,803c-709,709-806,802-832,802c-17,0-213-47-435-105c-223-58-412-105-421-105
		c-12,0-25,34-52,139c-21,77-37,146-37,153c0,10,86,37,287,91l288,77l141,140c77,77,146,140,153,140c19,0,150,68,196,101
		c113,83,223,221,271,341c22,54,44,82,160,198l134,135l77,288c54,204,81,287,91,287C2685,4240,2754,4224,2831,4203z M956,3042
		c115-106,257-167,458-198l39-6l-44-43c-38-38-57-47-139-69l-95-26l-197,198c-212,212-221,225-182,280l15,22l38-47
		C870,3126,918,3076,956,3042z M2628,2947l73-74l-67-39c-37-21-100-70-141-107c-59-56-73-75-73-99c0-42,15-64,50-77
		c37-13,66-3,100,34s133,107,199,140l54,27l36-36l36-36l-228-227l-227-228l-165,165c-91,91-165,169-165,175c0,7,439,455,445,455
		C2555,3020,2588,2987,2628,2947z M731,2368c6-24,24-92,40-152s28-110,27-112c-2-1-37-12-78-23c-102-29-156-27-203,4
		c-47,32-67,71-67,130c0,91,43,136,161,169c46,14,89,25,96,25C714,2410,724,2391,731,2368z M4564,1459c87-91,106-126,106-199
		c0-112-82-193-197-193c-67,0-116,29-208,122l-70,71l107,108c58,59,119,122,134,139c16,18,34,33,40,33S4522,1504,4564,1459z
		 M3942,843c41-43,83-94,93-113c33-64,18-165-34-224c-45-52-154-72-226-42c-33,14-195,161-195,177c0,11,268,279,278,279
		C3863,920,3900,885,3942,843z"/>
	<path class="st0" d="M1573,4136c-71-23-101-48-330-278c-250-251-266-275-266-388c0-157,119-274,278-275c111,0,129,13,402,287
		c233,234,242,245,258,302c44,153-38,306-187,351C1666,4153,1629,4153,1573,4136z M1717,3964c36-23,57-75,48-120
		c-6-33-36-69-218-251c-115-117-226-220-245-229c-90-42-189,42-161,139c11,37,416,450,464,473C1639,3992,1682,3987,1717,3964z"/>
</g>
</svg>
