<?xml version="1.0" encoding="utf-8"?>
<!-- Generator: Adobe Illustrator 25.2.0, SVG Export Plug-In . SVG Version: 6.00 Build 0)  -->
<svg version="1.1" id="Layer_1" xmlns="http://www.w3.org/2000/svg" xmlns:xlink="http://www.w3.org/1999/xlink" x="0px" y="0px"
	 viewBox="0 0 512 512" style="enable-background:new 0 0 512 512;" xml:space="preserve">
<style type="text/css">
	.st0{fill:#DADADA;}
</style>
<g transform="translate(0.000000,512.000000) scale(0.100000,-0.100000)">
	<path class="st0" d="M1071,5103c-14-11-27-42-36-81c-65-278-220-441-440-459c-54-5-74-11-92-29c-53-53-11-134,69-134
		c148,0,289-89,375-235c36-61,93-217,93-254c0-32,44-71,78-71c48,0,71,27,89,104c61,271,220,435,437,453c55,5,75,11,93,29
		c53,53,11,134-69,134c-148,1-290,90-375,235c-36,61-93,217-93,254c0,32-44,71-78,71C1105,5120,1083,5112,1071,5103z M1154,4715
		c28-55,134-172,191-213l30-22l-30-22c-57-41-163-158-191-213c-16-30-31-55-35-55c-3,0-15,19-26,43c-31,62-105,150-165,198
		c-29,23-53,45-53,49s24,26,53,49c60,48,134,136,165,199c11,23,23,42,26,42C1123,4770,1138,4745,1154,4715z"/>
	<path class="st0" d="M2985,4695c-21-20-25-34-25-80v-55h-55c-67,0-105-29-105-80s38-80,105-80h55v-55c0-67,29-105,80-105
		s80,38,80,105v55h55c67,0,105,29,105,80s-38,80-105,80h-55v55c0,67-29,105-80,105C3021,4720,3000,4711,2985,4695z"/>
	<path class="st0" d="M1705,4295c-30-29-33-74-7-104c12-14,230-96,713-266c382-135,705-245,718-245c56,0,91,84,54,129
		c-13,15-224,93-713,266c-382,135-705,245-718,245S1718,4309,1705,4295z"/>
	<path class="st0" d="M751,4143c-22-19-431-1148-431-1191c0-57,84-92,129-54c22,18,431,1147,431,1190C880,4145,796,4180,751,4143z"
		/>
	<path class="st0" d="M3500,3904c-192-70-273-277-179-455c36-67,68-98,143-137c43-22,64-26,136-27c79,0,90,3,150,36
		c231,127,222,456-15,568C3670,3920,3563,3927,3500,3904z M3663,3746c104-43,128-175,47-256c-66-66-156-67-221-1
		C3365,3612,3502,3814,3663,3746z"/>
	<path class="st0" d="M4825,3735c-21-20-25-34-25-80v-55h-55c-67,0-105-29-105-80s38-80,105-80h55v-55c0-67,29-105,80-105
		s80,38,80,105v55h55c67,0,105,29,105,80s-38,80-105,80h-55v55c0,67-29,105-80,105C4861,3760,4840,3751,4825,3735z"/>
	<path class="st0" d="M3232,3263c-11-10-149-184-306-387c-309-397-311-402-261-451c29-30,74-33,103-7c11,9,149,183,306,386
		c309,397,311,402,261,451C3306,3285,3261,3288,3232,3263z"/>
	<path class="st0" d="M3785,3255c-14-13-25-35-25-47c0-13,38-138,85-278c89-269,101-290,157-290c35,0,78,39,78,72
		c0,13-38,138-85,278c-58,176-91,260-106,273C3859,3288,3814,3285,3785,3255z"/>
	<path class="st0" d="M220,2784c-227-82-293-362-125-529c66-66,125-90,225-89c72,0,93,4,136,26c75,39,107,70,145,140
		c30,57,33,71,34,148c0,100-24,159-90,225C463,2787,323,2821,220,2784z M383,2626c103-43,128-177,48-257c-64-65-153-65-220-1
		C83,2489,220,2694,383,2626z"/>
	<path class="st0" d="M2271,2783c-14-11-27-42-36-81c-65-278-220-441-440-459c-54-5-74-11-92-29c-53-53-11-134,69-134
		c148,0,289-89,375-235c36-61,93-217,93-254c0-32,44-71,78-71c48,0,71,27,89,104c61,271,220,435,437,453c55,5,75,11,93,29
		c53,53,11,134-69,134c-148,1-290,90-375,235c-36,61-93,217-93,254c0,32-44,71-78,71C2305,2800,2283,2792,2271,2783z M2354,2395
		c28-55,134-172,191-213l30-22l-30-22c-57-41-163-158-191-213c-16-30-31-55-35-55c-3,0-15,19-26,43c-31,62-105,150-165,198
		c-29,23-53,45-53,49s24,26,53,49c60,48,134,136,165,199c11,23,23,42,26,42C2323,2450,2338,2425,2354,2395z"/>
	<path class="st0" d="M745,2535c-30-29-33-73-7-105c15-19,75-35,393-106c205-46,384-84,397-84c32,0,72,43,72,78c0,65-5,67-411,158
		c-205,46-384,84-397,84S758,2549,745,2535z"/>
	<path class="st0" d="M3980,2544c-142-52-229-183-218-327c26-318,443-407,597-127c33,60,36,71,36,150c-1,72-5,93-27,136
		c-39,75-70,107-138,143C4154,2560,4051,2570,3980,2544z M4143,2386c103-43,128-177,48-257c-65-65-157-65-222,0
		C3845,2252,3982,2454,4143,2386z"/>
	<path class="st0" d="M3957,1828c-9-7-75-91-147-187c-141-190-150-211-105-256c26-27,71-33,98-12c9,6,75,90,147,186
		c141,190,150,211,105,256C4029,1842,3984,1848,3957,1828z"/>
	<path class="st0" d="M831,1503c-14-11-27-42-36-81c-65-278-220-441-440-459c-54-5-74-11-92-29c-53-53-11-134,69-134
		c148,0,289-89,375-235c36-61,93-217,93-254c0-32,44-71,78-71c48,0,71,27,89,104c61,271,220,435,437,453c55,5,75,11,93,29
		c53,53,11,134-69,134c-148,1-290,90-375,235c-36,61-93,217-93,254c0,32-44,71-78,71C865,1520,843,1512,831,1503z M914,1115
		c28-55,134-172,191-213l30-22l-30-22c-57-41-163-158-191-213c-16-30-31-55-35-55c-3,0-15,19-26,43c-31,62-105,150-165,198
		c-29,23-53,45-53,49s24,26,53,49c60,48,134,136,165,199c11,23,23,42,26,42C883,1170,898,1145,914,1115z"/>
	<path class="st0" d="M3260,1424c-142-52-229-183-218-327c26-318,443-407,597-127c33,60,36,71,36,150c-1,72-5,93-27,136
		c-39,75-70,107-138,143C3434,1440,3331,1450,3260,1424z M3423,1266c103-43,128-177,48-257c-65-65-157-65-222,0
		C3125,1132,3262,1334,3423,1266z"/>
	<path class="st0" d="M3799,950c-23-14-42-65-35-95c5-19,67-65,263-197c142-94,265-173,275-176c30-7,75,18,88,49
		c25,60,17,68-263,254C3869,958,3838,973,3799,950z"/>
	<path class="st0" d="M2425,855c-21-20-25-34-25-80v-55h-55c-67,0-105-29-105-80s38-80,105-80h55v-55c0-67,29-105,80-105
		s80,38,80,105v55h55c67,0,105,29,105,80s-38,80-105,80h-55v55c0,67-29,105-80,105C2461,880,2440,871,2425,855z"/>
	<path class="st0" d="M4700,624c-142-52-229-183-218-327c26-318,443-407,597-127c33,60,36,71,36,150c-1,72-5,93-27,136
		c-39,75-70,107-138,143C4874,640,4771,650,4700,624z M4863,466c103-43,128-177,48-257c-65-65-157-65-222,0
		C4565,332,4702,534,4863,466z"/>
</g>
</svg>
