<?xml version="1.0" encoding="utf-8"?>
<!-- Generator: Adobe Illustrator 25.2.0, SVG Export Plug-In . SVG Version: 6.00 Build 0)  -->
<svg version="1.1" id="Layer_1" xmlns="http://www.w3.org/2000/svg" xmlns:xlink="http://www.w3.org/1999/xlink" x="0px" y="0px"
	 viewBox="0 0 512 512" style="enable-background:new 0 0 512 512;" xml:space="preserve">
<style type="text/css">
	.st0{fill:#DADADA;}
</style>
<g transform="translate(0.000000,512.000000) scale(0.100000,-0.100000)">
	<path class="st0" d="M1665,4476c-269-59-526-141-765-241c-129-55-121-46-253-267C177,3185-34,2369,10,1502c6-120,13-224,15-232
		c6-18,297-213,424-285c131-74,344-178,476-233c159-67,387-144,395-135c61,71,260,400,260,431c0,5-30,22-67,37
		c-126,52-343,166-343,180c0,8,20,30,45,50l45,37l122-50c790-323,1594-319,2376,10c51,21,98,36,105,32c35-21,87-67,87-79
		c0-13-211-124-325-170c-38-16-75-33-82-39c-9-8,3-38,53-125c62-108,200-321,208-321c13,0,261,90,366,132c255,103,579,279,807,437
		c56,39,107,79,112,89s15,117,21,238c36,749-112,1450-451,2125c-86,172-179,334-270,470l-58,86l-128,53c-299,123-589,209-891,264
		l-32,6l-67-138c-36-75-67-138-67-138c-1-1-46,4-101,12c-286,38-684,38-970,0c-55-8-100-13-100-12c-16,45-140,276-148,275
		C1820,4509,1748,4494,1665,4476z M3599,2840c121-57,227-195,262-340c19-81,14-222-10-300c-44-141-136-251-258-312
		c-64-31-73-33-178-33c-108,0-113,1-187,38c-345,170-374,696-51,919C3296,2893,3460,2904,3599,2840z M1896,2841
		c123-61,215-175,258-320c20-69,21-227,1-301c-39-146-137-271-261-331c-66-32-75-34-179-34c-103,0-114,2-178,32
		c-95,45-178,127-226,224c-51,101-65,170-58,289c8,158,80,304,191,388c101,77,152,93,282,90C1817,2875,1833,2871,1896,2841z"/>
</g>
</svg>
