<?xml version="1.0" encoding="utf-8"?>
<!-- Generator: Adobe Illustrator 25.2.0, SVG Export Plug-In . SVG Version: 6.00 Build 0)  -->
<svg version="1.1" id="Layer_1" xmlns="http://www.w3.org/2000/svg" xmlns:xlink="http://www.w3.org/1999/xlink" x="0px" y="0px"
	 viewBox="0 0 512 513" style="enable-background:new 0 0 512 513;" xml:space="preserve">
<style type="text/css">
	.st0{fill:#DADADA;}
</style>
<g transform="translate(0.000000,513.000000) scale(0.100000,-0.100000)">
	<path class="st0" d="M2905,5123c-68-9-226-53-301-82c-385-154-636-462-736-904c-17-79-21-139-27-412l-6-320l-280-5
		c-236-4-285-8-311-22c-46-25-111-101-123-144c-7-25-11-199-11-485v-445l26-52c14-29,42-66,62-82c65-53,108-60,389-60h253v-955
		c0-1054-4-994,63-1063c18-19,50-43,72-55c39-22,47-22,520-22c475,0,480,0,521,22c48,25,101,83,120,129c12,28,14,201,14,988v955
		l328,3c312,3,329,4,367,24c51,28,91,68,119,119c20,39,21,52,24,470c2,293,0,446-8,482c-14,66-57,124-117,160l-48,28l-330,5l-330,5
		v190c1,105,4,207,8,228c14,70,22,71,362,77c257,5,306,8,340,23c50,22,100,70,128,122c22,39,22,48,22,475c0,430,0,436-22,476
		c-28,52-71,96-116,118c-31,14-86,16-489,15C3139,5128,2922,5125,2905,5123z M3718,4523l-3-318l-270-6c-213-4-281-9-322-22
		c-110-36-204-127-237-231c-27-82-38-240-34-489c3-246,7-266,56-310c47-43,81-46,440-47h342v-345v-345h-356c-341,0-358-1-393-21
		c-20-11-48-36-61-56l-25-37l-3-993l-2-993h-355h-355l-2,993l-3,993l-25,37c-13,20-41,45-61,56c-35,20-53,21-338,21h-301v345v345
		h288c300,1,338,6,384,47c52,47,52,50,59,478c6,389,7,403,32,495c42,156,90,256,174,368c125,165,323,282,549,326
		c115,22,118,23,487,24l337,2L3718,4523z"/>
</g>
</svg>
