<?xml version="1.0" encoding="utf-8"?>
<!-- Generator: Adobe Illustrator 25.2.0, SVG Export Plug-In . SVG Version: 6.00 Build 0)  -->
<svg version="1.1" id="Layer_1" xmlns="http://www.w3.org/2000/svg" xmlns:xlink="http://www.w3.org/1999/xlink" x="0px" y="0px"
	 viewBox="0 0 512 512" style="enable-background:new 0 0 512 512;" xml:space="preserve">
<style type="text/css">
	.st0{fill:#DADADA;}
</style>
<g transform="translate(0.000000,512.000000) scale(0.100000,-0.100000)">
	<path class="st0" d="M2640,4764c-264-31-459-74-636-140c-371-138-677-375-912-703l-60-84l-66,2c-159,6-288-119-289-279
		c-1-113,55-204,158-258c72-37,178-37,251,0c98,51,155,144,155,253c0,66-24,140-58,177c-21,23-14,39,64,143
		c245,329,603,567,1010,670c205,51,343,68,563,68c226,0,343-14,540-63c168-42,276-82,445-164c375-183,669-440,898-786
		c85-129,191-341,237-475c36-107,64-145,105-145c30,0,75,41,75,69c0,39-73,230-144,376c-237,485-608,855-1101,1096
		c-239,117-463,187-716,224C3060,4760,2713,4773,2640,4764z M1021,3675c99-52,89-200-16-241c-43-16-48-16-91,1c-57,21-84,62-84,125
		c0,52,18,83,64,111C932,3694,981,3695,1021,3675z"/>
	<path class="st0" d="M765,4635c-17-16-25-35-25-60c0-33-2-35-35-35c-25,0-44-8-60-25c-51-50-16-125,58-125c35,0,37-2,37-34
		c0-47,33-86,74-86c44,0,76,35,76,83c0,36,1,37,38,37c48,0,82,32,82,77c0,40-39,73-86,73c-33,0-34,1-34,39
		C890,4651,814,4685,765,4635z"/>
	<path class="st0" d="M3866,4159c-20-16-26-29-26-58c0-37-1-39-41-44c-55-7-79-31-79-77s22-67,78-76c41-6,42-8,42-44
		c0-45,27-73,72-73c38,0,78,41,78,82c0,25,4,29,39,35c39,6,81,43,81,72c0,45-44,84-95,84c-20,0-25,5-25,25c0,36-19,71-47,84
		C3909,4185,3896,4183,3866,4159z"/>
	<path class="st0" d="M2605,4053c-189-16-401-75-570-159c-450-221-722-681-701-1184c12-310,113-560,307-765
		c300-315,790-405,1182-216c217,105,381,301,449,537c33,115,33,325,0,439c-87,304-312,497-618,530c-106,12-277-22-345-68
		c-43-29-52-84-20-116c27-27,52-26,126,1c83,30,241,37,321,13c195-56,336-203,389-401c43-163,26-324-52-484c-38-80-59-108-132-180
		c-68-67-104-95-171-128c-136-67-220-85-390-85c-129,0-155,3-233,26c-242,74-423,219-537,429c-228,424-146,960,201,1308
		c170,171,413,290,687,335c162,27,409,17,562-23c354-91,641-291,835-582l64-94l-36-35c-52-50-83-123-83-195c0-78,15-124,59-182
		c100-133,301-146,423-27c166,162,67,460-161,480l-58,6l-36,62c-136,236-394,473-651,599C3168,4016,2863,4075,2605,4053z M4217,3036
		c43-47,48-104,12-162c-23-38-57-54-115-54c-126,0-170,173-61,241c24,15,44,19,81,16C4176,3073,4189,3067,4217,3036z"/>
	<path class="st0" d="M2493,3788c-35-9-63-49-63-90c0-57,67-100,120-78C2660,3666,2608,3819,2493,3788z"/>
	<path class="st0" d="M2490,3504c-84-16-193-50-256-79c-231-106-399-309-465-560c-29-110-29-288,0-400c73-281,282-475,566-523
		c93-16,204-9,298,18c71,21,85,113,22,142c-20,9-41,8-93-2c-201-41-386,17-517,161c-98,108-145,239-145,404c0,317,202,577,517,667
		c112,32,333,32,446,0c398-114,643-433,664-868c26-537-335-1014-861-1139c-55-13-122-27-148-30c-44-7-47-5-61,21
		c-72,137-267,154-371,32c-40-46-40-46-195,3c-308,100-567,295-747,565c-185,278-275,658-245,1037c11,139,11,160-2,181
		c-28,42-92,39-121-6c-32-50-46-338-25-526c47-426,218-782,506-1052c195-182,477-332,719-381c56-11,62-15,73-46
		c18-48,69-103,116-124c52-24,138-24,190,0c42,19,100,78,115,116c7,18,19,23,68,29c89,10,248,51,338,86c339,135,606,409,728,750
		c50,136,67,227,73,381c17,421-147,764-467,978c-173,115-325,162-545,166C2583,3507,2504,3506,2490,3504z M2295,1274
		c24-10,46-60,39-89c-21-84-144-67-144,20C2190,1261,2241,1294,2295,1274z"/>
	<path class="st0" d="M2405,2967c-227-74-337-327-236-540c40-84,128-167,207-196c199-75,407,8,498,199c28,59,31,74,31,165
		c0,88-3,107-27,157c-37,80-107,152-187,191c-57,28-77,32-156,34C2482,2979,2429,2974,2405,2967z M2646,2794c136-84,151-276,30-380
		c-115-99-285-69-363,63c-23,40-28,59-28,113c1,102,50,180,140,222C2487,2841,2583,2833,2646,2794z"/>
	<path class="st0" d="M419,2801c-20-20-29-39-29-61c0-43,47-90,90-90s90,47,90,90s-47,90-90,90C458,2830,439,2821,419,2801z"/>
	<path class="st0" d="M4621,2714c-62-52-28-154,52-154c95,0,129,123,46,165C4679,2746,4656,2744,4621,2714z"/>
	<path class="st0" d="M4208,2525c-15-9-30-26-32-38c-3-12-7-107-10-212c-5-216-22-314-87-509c-183-552-598-956-1179-1149
		c-568-189-1164-148-1706,118C743,955,396,1302,164,1761c-39,79-68,98-116,78c-64-26-63-65,8-198C429,935,1105,467,1898,366
		c142-18,408-21,550-5c336,36,732,172,987,339c379,248,658,610,796,1034c86,261,126,710,70,776C4279,2537,4240,2542,4208,2525z"/>
	<path class="st0" d="M2806,2214c-37-37-35-86,3-125c20-20,39-29,61-29c43,0,90,47,90,90c0,22-9,41-29,61
		C2892,2249,2843,2251,2806,2214z"/>
	<path class="st0" d="M696,1591c-10-11-20-38-23-60c-5-37-8-41-35-41c-40,0-67-16-79-47c-20-52,23-103,86-103c20,0,25-5,25-26
		c0-114,138-126,156-14c5,33,10,40,30,40c62,0,104,51,85,103c-12,31-39,47-79,47c-28,0-30,3-36,45c-5,29-15,50-29,60
		C767,1616,717,1614,696,1591z"/>
	<path class="st0" d="M3115,1115c-38-37-35-95,6-129c35-30,58-32,98-11c34,17,55,62,45,99C3249,1137,3161,1162,3115,1115z"/>
	<path class="st0" d="M4203,845c-14-10-24-31-29-60c-6-42-8-45-38-45c-64,0-100-54-72-109c17-32,34-41,77-41c22,0,29-5,29-20
		c0-11,6-36,14-55c35-82,146-44,146,50c0,21,5,25,29,25c43,0,60,9,77,41c28,55-8,109-72,109c-29,0-32,3-37,42
		C4318,851,4256,882,4203,845z"/>
</g>
</svg>
