<?xml version="1.0" encoding="utf-8"?>
<!-- Generator: Adobe Illustrator 25.2.0, SVG Export Plug-In . SVG Version: 6.00 Build 0)  -->
<svg version="1.1" id="Layer_1" xmlns="http://www.w3.org/2000/svg" xmlns:xlink="http://www.w3.org/1999/xlink" x="0px" y="0px"
	 viewBox="0 0 512 512" style="enable-background:new 0 0 512 512;" xml:space="preserve">
<style type="text/css">
	.st0{fill:#DADADA;}
</style>
<g transform="translate(0.000000,512.000000) scale(0.100000,-0.100000)">
	<path class="st0" d="M435,4193c-197-27-373-188-420-384c-22-96-22-2402,0-2498c45-188,198-335,390-376c106-22,4205-22,4310,0
		c194,41,345,187,390,376c22,96,22,2402,0,2498c-40,168-158,298-331,363l-59,23l-2125,1C1421,4197,452,4195,435,4193z M4734,3972
		l50-23l-25-23c-13-13-512-434-1107-935c-653-550-1089-910-1098-907c-12,5-2140,1791-2193,1841l-24,23l31,16c17,9,48,20,69,25
		c22,5,930,8,2143,8l2105-2L4734,3972z M944,3172c394-332,716-607,716-612c0-8-1422-1211-1440-1218c-4-2-10,7-14,20
		c-8,30-8,2366,0,2396c4,13,10,22,14,20C225,3776,550,3504,944,3172z M4914,3758c8-30,8-2366,0-2396c-4-13-10-22-14-20
		c-24,9-1440,1212-1437,1221c3,11,1428,1215,1438,1216C4905,3780,4910,3770,4914,3758z M2174,2135c175-147,332-274,348-282
		c17-9,40-12,57-8c18,4,160,116,373,295c294,249,345,287,358,276c8-7,332-280,720-606s716-603,729-616l25-23l-50-23l-49-23H2560H435
		l-49,23c-43,20-48,24-35,37c8,8,343,291,744,629c615,517,732,612,745,602C1848,2409,1999,2283,2174,2135z"/>
</g>
</svg>
