<?xml version="1.0" encoding="utf-8"?>
<!-- Generator: Adobe Illustrator 25.2.0, SVG Export Plug-In . SVG Version: 6.00 Build 0)  -->
<svg version="1.1" id="Layer_1" xmlns="http://www.w3.org/2000/svg" xmlns:xlink="http://www.w3.org/1999/xlink" x="0px" y="0px"
	 viewBox="0 0 512 512" style="enable-background:new 0 0 512 512;" xml:space="preserve">
<style type="text/css">
	.st0{fill:#DADADA;}
</style>
<g transform="translate(0.000000,512.000000) scale(0.100000,-0.100000)">
	<path class="st0" d="M2330,4869c-215-22-474-89-679-176C771,4320,206,3431,243,2480c17-432,144-834,375-1185
		c101-154,175-245,303-374c129-128,220-202,374-303c912-599,2136-470,2907,305c352,354,576,801,655,1308c24,159,24,500,0,659
		c-78,498-290,927-635,1281c-134,139-231,220-387,324C3399,4786,2854,4921,2330,4869z M2885,4695c546-85,1028-368,1377-807
		c29-37,62-81,71-98l18-30h-631h-631l-24-25c-16-15-25-36-25-55s9-40,25-55l24-25h684h684l52-111c28-60,51-114,51-120
		c0-5-676-9-1775-9H1009l-24-25c-30-29-32-74-6-106l19-24l1814-5l1813-5l26-100c14-55,33-144,41-197l15-98h-609h-609l-24-25
		c-33-32-33-78,0-110l24-25h617h617l-6-147c-9-229-41-405-113-625l-36-108h-499h-500l-24-25c-33-32-33-78,0-110l24-25h462
		c433,0,461-1,454-17c-3-10-34-64-67-120c-181-304-440-567-734-746c-546-333-1207-406-1814-201c-131,45-314,127-395,178l-40,25
		l418,1h418l24,25c33,32,33,78,0,110l-24,25h-534h-534l-89,77l-88,78l828,5l828,5l19,24c26,32,24,77-6,106l-24,25h-895H881l-60,82
		c-85,117-176,273-229,392c-45,102-112,289-112,313c0,11,108,13,568,13h567l24-45c103-194,455-256,687-120c88,52,154,156,154,245
		s-66,193-154,245c-232,136-584,74-687-120l-24-45h-587H440l-5,23c-16,70-26,169-32,305l-6,152h657h657l24,25c33,32,33,78,0,110
		l-24,25h-649H413l3,23c64,460,239,839,547,1190l59,67h1264h1265l24,25c33,32,33,78,0,110l-24,25H2378H1205l25,21
		c124,100,381,246,552,313c157,61,416,122,598,140C2469,4722,2787,4711,2885,4695z M2197,2210c66-28,123-89,123-130s-57-101-123-131
		c-44-20-68-23-157-23s-113,3-157,23c-66,29-123,90-123,131c0,56,83,126,177,150C2002,2246,2138,2236,2197,2210z"/>
</g>
</svg>
