<?xml version="1.0" encoding="utf-8"?>
<!-- Generator: Adobe Illustrator 25.2.0, SVG Export Plug-In . SVG Version: 6.00 Build 0)  -->
<svg version="1.1" id="Layer_1" xmlns="http://www.w3.org/2000/svg" xmlns:xlink="http://www.w3.org/1999/xlink" x="0px" y="0px"
	 viewBox="0 0 512 512" style="enable-background:new 0 0 512 512;" xml:space="preserve">
<style type="text/css">
	.st0{fill:#DADADA;}
</style>
<g transform="translate(0.000000,512.000000) scale(0.100000,-0.100000)">
	<path class="st0" d="M1865,4855l-25-24v-511v-511l25-24c24-25,24-25,240-25h215v-600v-600h-344h-343l-139,698
		c-119,595-142,700-161,720c-21,21-30,22-163,22c-112,0-140,3-140,14c0,7-16,45-35,83c-43,86-103,144-193,186l-67,32l-222,3l-222,4
		l-26-26c-33-33-33-79,0-111c24-25,26-25,216-25c230,0,256-6,324-75c102-101,102-229,0-330c-68-69-94-75-324-75c-190,0-192,0-216-25
		c-33-32-33-78,0-111l26-26l222,4l222,3l67,32c90,42,150,100,193,186c19,38,35,76,35,83c0,11,21,14,93,14h92l124-622
		c69-343,127-631,129-640c4-17-8-18-147-18c-148,0-153-1-176-25l-25-24v-578v-578l-51-12c-233-56-405-257-426-498
		c-27-322,233-605,557-605c323,0,584,283,557,604c-10,114-54,225-123,307l-37,44l182,3c99,1,263,1,362,0l182-3l-37-44
		c-69-82-113-193-123-307c-27-320,234-604,557-604c322,0,584,284,557,604c-10,114-54,225-123,307l-37,44l182,3c99,1,263,1,362,0
		l182-3l-37-44c-83-99-121-209-121-351c0-158,50-282,156-390c219-223,573-225,793-4c183,182,216,460,82,689c-44,74-138,160-216,197
		c-38,18-69,36-69,39c-1,4,98,91,219,194c234,200,249,220,216,270c-22,33-53,48-84,40c-14-3-116-84-226-178c-111-95-209-178-219-186
		c-16-13-17-7-17,80l1,94l274,234c183,157,276,242,280,259c13,51-30,102-85,102c-11,0-113-80-228-177c-114-98-215-184-225-192
		c-16-13-17-7-17,80l1,94l240,205c327,279,319,271,319,309c0,42-38,81-79,81c-25,0-68-32-239-177c-114-98-215-184-225-192
		c-16-13-17-7-17,80l1,94l240,205c327,279,319,271,319,309c0,42-38,81-79,81c-26,0-78-41-311-240l-280-240h-865h-865v600v600h215
		c216,0,216,0,240,25l25,24v511v511l-25,24l-24,25h-511h-511L1865,4855z M2800,4320v-400h-400h-400v400v400h400h400V4320z
		 M1556,2135c56-281,62-295,126-295c33,0,78,39,78,68c0,10-20,119-45,242s-45,230-45,237c0,11,224,13,1245,13h1245v-520v-520H2720
		H1280v520v521l112-3l112-3L1556,2135z M1364,1162c91-42,149-100,194-190c35-72,37-81,37-172s-2-100-37-172c-45-91-103-147-196-191
		c-61-29-76-32-162-32s-101,3-162,32c-93,44-151,100-196,191c-35,72-37,81-37,171c0,87,3,102,32,163c40,85,97,147,172,186
		c78,42,122,52,213,48C1283,1193,1314,1185,1364,1162z M2884,1162c91-42,149-100,194-190c35-72,37-81,37-172s-2-100-37-172
		c-45-91-103-147-196-191c-61-29-76-32-162-32s-101,3-162,32c-93,44-151,100-196,191c-35,72-37,81-37,171c0,87,3,102,32,163
		c40,85,97,147,172,186c78,42,122,52,213,48C2803,1193,2834,1185,2884,1162z M4404,1162c91-42,149-100,194-190c35-72,37-81,37-172
		s-2-100-37-172c-45-91-103-147-196-191c-61-29-76-32-162-32s-101,3-162,32c-93,44-151,100-196,191c-35,72-37,81-37,171
		c0,87,3,102,32,163c40,85,97,147,172,186c78,42,122,52,213,48C4323,1193,4354,1185,4404,1162z"/>
	<path class="st0" d="M2320,4547c-49-16-133-102-148-153c-28-94-8-169,63-239c102-103,243-101,338,5c93,103,90,228-8,325
		C2495,4556,2413,4576,2320,4547z M2455,4375c50-49,15-135-55-135c-41,0-80,39-80,80s39,80,80,80C2419,4400,2440,4391,2455,4375z"/>
	<path class="st0" d="M1120,1027c-49-16-133-102-148-153c-28-94-8-169,63-239c101-102,229-102,330,0c102,101,102,229,0,330
		C1295,1036,1213,1056,1120,1027z M1255,855c16-15,25-36,25-55s-9-40-25-55c-15-16-36-25-55-25s-40,9-55,25c-16,15-25,36-25,55
		s9,40,25,55c15,16,36,25,55,25S1240,871,1255,855z"/>
	<path class="st0" d="M2640,1027c-49-16-133-102-148-153c-28-94-8-169,63-239c70-71,145-91,239-63c55,16,138,99,154,154
		c28,94,8,169-63,239C2815,1036,2733,1056,2640,1027z M2775,855c50-49,15-135-55-135c-41,0-80,39-80,80s39,80,80,80
		C2739,880,2760,871,2775,855z"/>
	<path class="st0" d="M4160,1027c-49-16-133-102-148-153c-28-94-8-169,63-239c70-71,145-91,239-63c55,16,138,99,154,154
		c28,94,8,169-63,239C4335,1036,4253,1056,4160,1027z M4295,855c50-49,15-135-55-135c-41,0-80,39-80,80s39,80,80,80
		C4259,880,4280,871,4295,855z"/>
</g>
</svg>
