<?xml version="1.0" encoding="utf-8"?>
<!-- Generator: Adobe Illustrator 25.2.0, SVG Export Plug-In . SVG Version: 6.00 Build 0)  -->
<svg version="1.1" id="Layer_1" xmlns="http://www.w3.org/2000/svg" xmlns:xlink="http://www.w3.org/1999/xlink" x="0px" y="0px"
	 viewBox="0 0 512 512" style="enable-background:new 0 0 512 512;" xml:space="preserve">
<style type="text/css">
	.st0{fill:#DADADA;}
</style>
<g transform="translate(0.000000,512.000000) scale(0.100000,-0.100000)">
	<path class="st0" d="M2330,4869c-424-43-831-205-1182-471l-78-58l-52,27c-45,23-65,27-138,27c-100,1-159-23-225-89s-90-125-89-225
		c0-84,15-130,66-201c9-13,5-25-19-60c-245-358-389-879-370-1344c47-1127,866-2039,1987-2212c160-24,501-24,659,0
		c147,23,350,75,476,122c282,104,573,285,783,486c62,60,72,75,72,104c0,38-28,74-57,76c-43,3-61-7-128-68
		c-658-613-1615-756-2420-364c-441,216-780,554-995,996c-329,673-284,1478,116,2097l43,67l38-11c89-24,239,23,299,95
		c71,85,100,207,70,301c-17,57-26,45,118,150c768,555,1822,537,2574-44c654-505,962-1332,797-2142c-34-169-108-380-187-536
		c-37-75-68-146-68-159c0-33,43-73,77-73c47,0,67,23,135,162c83,167,131,296,174,464c55,218,68,332,68,574s-13,356-68,574
		c-229,903-978,1579-1906,1721C2772,4875,2460,4882,2330,4869z M943,4226c103-43,128-177,48-257c-112-113-296-12-267,146
		C742,4209,852,4265,943,4226z"/>
	<path class="st0" d="M2423,4230c-45-19-58-95-23-130c18-18,33-20,160-20s142,2,160,20c26,26,26,80,1,111c-18,23-26,24-148,26
		C2503,4239,2435,4235,2423,4230z"/>
	<path class="st0" d="M2070,4165C1290,3931,789,3156,895,2347c68-520,356-958,809-1232c157-94,322-157,521-200c14-3,24-18,32-48
		c26-98,122-190,228-218c102-28,251,20,315,102c33,41,69,115,70,141c0,11,11,20,28,24c186,41,338,97,484,180
		c908,513,1136,1712,481,2524c-206,255-522,465-826,550c-96,27-141,6-141-67c0-47,22-64,131-98c223-69,420-191,604-374
		c184-184,296-364,372-601c55-167,72-281,72-470s-17-303-72-470c-76-237-188-417-372-601c-188-187-385-308-616-377
		c-158-48-152-47-171-10c-32,63-73,105-136,139c-58,31-70,34-148,34s-90-3-148-34c-62-34-104-76-136-138c-19-39-25-38-186,14
		c-237,76-415,187-601,372c-230,231-366,487-425,806c-25,134-26,402-1,530c64,326,195,574,426,806c187,186,351,288,601,373
		c101,34,129,52,131,85C2228,4176,2182,4199,2070,4165z M2623,1106c104-43,128-175,47-256c-66-66-156-67-221-1
		C2325,972,2462,1174,2623,1106z"/>
	<path class="st0" d="M2400,3588c-101-14-272-76-364-130c-92-55-204-147-224-185c-17-31-7-78,21-98c40-28,70-18,145,44
		c188,157,407,233,633,218c389-25,702-287,805-673c13-51,18-105,18-204c0-149-15-225-66-341l-30-67l-39,5c-66,9-128-15-185-71
		c-60-61-80-118-70-201l6-55l-40-25c-214-135-526-161-769-64c-394,157-613,547-546,973c17,107,17,116,1,140c-31,48-97,44-130-6
		c-28-43-49-202-43-333c22-467,333-847,793-966c126-33,349-33,477-1c108,27,213,70,301,123l66,40l45-16c94-31,168-13,240,60
		c78,77,95,166,51,260l-23,50l25,50c89,178,122,408,87,611C3487,3294,2970,3670,2400,3588z M3335,1975c50-49,15-135-55-135
		c-41,0-80,39-80,80s39,80,80,80C3299,2000,3320,1991,3335,1975z"/>
	<path class="st0" d="M2466,2950c-63-16-153-70-197-117c-22-24-55-74-72-111c-29-61-32-76-32-163c0-90,2-99,37-171
		c45-91,103-147,196-191c61-29,76-32,162-32s101,3,162,32c93,44,151,100,196,191c35,72,37,81,37,172s-2,100-37,172
		c-68,136-188,217-336,224C2540,2958,2488,2955,2466,2950z M2634,2788c55-16,138-99,154-154c28-94-1-191-77-255
		c-98-85-222-78-316,16c-102,101-102,229,0,330C2465,2796,2540,2815,2634,2788z"/>
</g>
</svg>
