<?xml version="1.0" encoding="utf-8"?>
<!-- Generator: Adobe Illustrator 25.2.0, SVG Export Plug-In . SVG Version: 6.00 Build 0)  -->
<svg version="1.1" id="Layer_1" xmlns="http://www.w3.org/2000/svg" xmlns:xlink="http://www.w3.org/1999/xlink" x="0px" y="0px"
	 viewBox="0 0 512 512" style="enable-background:new 0 0 512 512;" xml:space="preserve">
<style type="text/css">
	.st0{fill:#DADADA;}
</style>
<g transform="translate(0.000000,512.000000) scale(0.100000,-0.100000)">
	<path class="st0" d="M4464,4805c-94-27-244-93-362-160c-214-123-561-360-602-413c-40-51-3-122,64-122c22,0,52,14,96,47
		c105,76,253,169,352,222c92,49,204,89,216,77c24-25-80-246-201-428c-65-98-211-299-272-375c-8-10-28,4-84,57
		c-433,412-1033,549-1601,368c-485-155-873-543-1028-1028c-181-569-44-1168,368-1601c53-56,67-76,57-84c-246-198-573-407-712-455
		c-85-29-98-27-90,12c20,96,124,290,264,488c59,84,81,123,81,146c0,67-71,104-122,64c-52-40-288-384-406-590
		c-203-355-239-606-99-698c53-35,169-42,267-17c243,63,643,304,1095,661c78,61,146,114,152,117c7,4,45-6,85-22
		c537-213,1160-109,1609,268c519,436,706,1172,458,1799c-16,40-26,79-22,85c4,7,48,64,98,127c327,411,574,806,661,1055
		c39,114,45,245,14,310c-14,29-38,56-63,73c-36,24-51,27-131,29C4551,4818,4495,4813,4464,4805z M4655,4649c5-5,9-32,9-59
		c-6-194-263-634-670-1147c-360-453-605-725-1098-1219c-494-493-766-738-1219-1098C1164,719,724,462,530,456c-62-1-75,12-74,74
		c2,58,52,217,79,248c2,2,20-9,41-23c35-24,46-27,109-22c191,12,476,185,1012,615c616,492,1344,1205,1884,1842
		c638,754,893,1194,784,1355c-15,20-25,38-23,40c20,17,163,68,218,78C4593,4669,4642,4662,4655,4649z M2835,3969
		c140-26,335-94,335-115c0-11-72-127-161-259c-409-606-1082-1251-1678-1610c-76-46-74-47-122,84c-43,117-77,289-84,429l-7,117l86,44
		c282,145,602,394,822,639c172,191,343,436,441,629l38,75l115-7C2683,3992,2780,3980,2835,3969z M2260,3883
		c-214-358-517-682-855-915c-81-56-248-158-258-158c-8,0,19,112,49,205c126,388,430,716,810,872c84,35,295,96,303,88
		C2311,3973,2289,3931,2260,3883z M3427,3706c54-41,125-101,157-135l59-60l-99-118c-517-614-1205-1303-1817-1817l-118-99l-60,59
		c-58,57-209,247-209,263c0,4,19,18,43,31c85,47,305,195,432,290c206,154,414,337,631,554c343,344,603,667,801,993
		c37,62,71,113,75,113S3373,3747,3427,3706z M3933,2983c43-142,42-136,6-200c-95-168-280-430-437-618c-98-116-431-449-547-547
		c-137-114-288-226-431-320c-192-126-240-151-272-144c-62,15-202,60-201,65c0,3,46,44,101,91c526,442,1289,1209,1704,1712
		c22,26,42,47,45,47C3904,3070,3919,3031,3933,2983z M3995,2473c-30-373-167-676-420-928c-252-253-570-396-930-420
		c-105-7-110-15,63,104c460,316,907,769,1221,1239c34,50,64,92,67,92C4000,2560,3999,2521,3995,2473z"/>
</g>
</svg>
